mtllib EmeraldPiece.mtl
g object_4BA6D4


v 0 3.4 0 
v 0.781 -1.95 0 
v 1.48 0.925 0 
v 1 2.35 0 
v 1.046518 0.075 -1.046518 
v 0.707107 2.125 -0.707107 
v 0 -1.95 -0.781 
v 0 0.925 -1.479999 
v 0 2.35 -1 
v -1.046518 0.075 -1.046518 
v -0.707107 2.125 -0.707107 
v -0.781 -1.95 0 
v -1.479999 0.925 0 
v -1 2.35 0 
v -1.046518 0.075 1.046518 
v -0.707107 2.125 0.707107 
v 0 -1.95 0.781 
v 0 0.925 1.479999 
v 0 2.35 1 
v 1.046518 0.075 1.046518 
v 0.707107 2.125 0.707107 
v 0 -3.4 0 

vn 0 0.9999999 0 
vn 0.901668 -0.432429 0 
vn 0.993264 0.115875 0 
vn 0.852792 0.522251 0 
vn 0.7014239 -0.126528 -0.7014239 
vn 0.6460499 0.406494 -0.6460509 
vn 0 -0.432429 -0.901668 
vn 0 0.115875 -0.993264 
vn 0 0.522251 -0.852792 
vn -0.7014239 -0.126528 -0.7014239 
vn -0.6460509 0.406494 -0.6460509 
vn -0.901668 -0.432429 0 
vn -0.993264 0.115875 0 
vn -0.852792 0.522251 0 
vn -0.7014239 -0.126528 0.7014239 
vn -0.6460509 0.406494 0.6460509 
vn 0 -0.432429 0.901668 
vn 0 0.115875 0.993264 
vn 0 0.522251 0.852792 
vn 0.7014239 -0.126528 0.7014239 
vn 0.6460499 0.406494 0.6460509 
vn 0 -0.9999999 0 

vc 255 255 255 255 
vc 255 255 255 255 
vc 255 255 255 255 
vc 255 255 255 255 
vc 255 255 255 255 
vc 255 255 255 255 
vc 255 255 255 255 
vc 255 255 255 255 
vc 255 255 255 255 
vc 255 255 255 255 
vc 255 255 255 255 
vc 255 255 255 255 
vc 255 255 255 255 
vc 255 255 255 255 
vc 255 255 255 255 
vc 255 255 255 255 
vc 255 255 255 255 
vc 255 255 255 255 
vc 255 255 255 255 
vc 255 255 255 255 
vc 255 255 255 255 
vc 255 255 255 255 
vc 255 255 255 255 
vc 255 255 255 255 
vc 255 255 255 255 
vc 255 255 255 255 
vc 255 255 255 255 
vc 255 255 255 255 
vc 255 255 255 255 
vc 255 255 255 255 
vc 255 255 255 255 
vc 255 255 255 255 
vc 255 255 255 255 
vc 255 255 255 255 
vc 255 255 255 255 
vc 255 255 255 255 
vc 255 255 255 255 
vc 255 255 255 255 
vc 255 255 255 255 
vc 255 255 255 255 
vc 255 255 255 255 
vc 255 255 255 255 
vc 255 255 255 255 
vc 255 255 255 255 
vc 255 255 255 255 
vc 255 255 255 255 
vc 255 255 255 255 
vc 255 255 255 255 
vc 255 255 255 255 
vc 255 255 255 255 
vc 255 255 255 255 
vc 255 255 255 255 
vc 255 255 255 255 
vc 255 255 255 255 

vt 0.760784327983856 -0.7843137383461 
vt 0.498039215803146 -1 
vt 0.850980401039124 -0.486274510622025 
vt 0.498039215803146 -0.7843137383461 
vt 0.835294127464294 -0.152941182255745 
vt 0.737254917621613 -0.184313729405403 
vt 0.498039215803146 0 
vt 0.498039215803146 -0.152941182255745 
vt 0.235294118523598 -0.7843137383461 
vt 0 -0.360784322023392 
vt 0.14509804546833 -0.486274510622025 
vt 0.160784319043159 -0.152941182255745 
vt 0 -0.360784322023392 
vt 0.258823543787003 -0.184313729405403 
vt 0.14509804546833 -0.486274510622025 
vt 0.498039215803146 -0.360784322023392 
vt 0.850980401039124 -0.486274510622025 
vt 1 -0.360784322023392 
vt 0.760784327983856 -0.7843137383461 
vt 0.850980401039124 -0.486274510622025 
vt 0.498039215803146 -1 
vt 0.498039215803146 -0.7843137383461 
vt 0.14509804546833 -0.486274510622025 
vt 0.498039215803146 -0.360784322023392 
vt 0.258823543787003 -0.184313729405403 
vt 0.498039215803146 -0.152941182255745 
vt 0.498039215803146 0 
vt 0.737254917621613 -0.184313729405403 
vt 0.835294127464294 -0.152941182255745 
vt 1 -0.360784322023392 
vt 0.737254917621613 -0.184313729405403 
vt 0.850980401039124 -0.486274510622025 
vt 0.498039215803146 -0.360784322023392 
vt 0.498039215803146 -0.7843137383461 
vt 0.14509804546833 -0.486274510622025 
vt 0.498039215803146 -1 
vt 0.235294118523598 -0.7843137383461 
vt 0.14509804546833 -0.486274510622025 
vt 0 -0.360784322023392 
vt 0.258823543787003 -0.184313729405403 
vt 0.160784319043159 -0.152941182255745 
vt 0.498039215803146 0 
vt 0.258823543787003 -0.184313729405403 
vt 0.498039215803146 -0.152941182255745 
vt 0.498039215803146 -0.360784322023392 
vt 0.737254917621613 -0.184313729405403 
vt 0.850980401039124 -0.486274510622025 
vt 0.498039215803146 -0.360784322023392 
vt 0.498039215803146 -0.7843137383461 
vt 0.498039215803146 -0.152941182255745 
vt 0.498039215803146 -0.360784322023392 
vt 0.737254917621613 -0.184313729405403 
vt 0.850980401039124 -0.486274510622025 
vt 1 -0.360784322023392 

usemtl material_4BA30C

f 2/1/2 22/2/22 5/3/5
f 5/3/5 22/2/22 7/4/7

f 4/5/4 6/6/6 1/7/1
f 1/7/1 6/6/6 9/8/9

f 12/9/12 13/10/13 10/11/10

f 13/13/13 14/12/14 11/14/11
f 13/13/13 11/14/11 10/15/10
f 10/15/10 11/14/11 8/16/8

f 5/17/5 3/18/3 2/19/2
f 2/19/2 3/18/3 20/20/20
f 2/19/2 20/20/20 22/21/22
f 22/21/22 20/20/20 17/22/17
f 22/21/22 17/22/17 15/23/15
f 15/23/15 17/22/17 18/24/18
f 15/23/15 18/24/18 16/25/16
f 16/25/16 18/24/18 19/26/19
f 16/25/16 19/26/19 1/27/1
f 1/27/1 19/26/19 21/28/21
f 1/27/1 21/28/21 4/29/4
f 4/29/4 21/28/21 3/30/3
f 4/29/4 3/30/3 6/31/6
f 6/31/6 3/30/3 5/32/5
f 6/31/6 5/32/5 8/33/8
f 8/33/8 5/32/5 7/34/7
f 8/33/8 7/34/7 10/35/10
f 10/35/10 7/34/7 22/36/22
f 10/35/10 22/36/22 12/37/12
f 12/37/12 22/36/22 15/38/15
f 12/37/12 15/38/15 13/39/13
f 13/39/13 15/38/15 16/40/16
f 13/39/13 16/40/16 14/41/14
f 14/41/14 16/40/16 1/42/1
f 14/41/14 1/42/1 11/43/11
f 11/43/11 1/42/1 9/44/9
f 11/43/11 9/44/9 8/45/8
f 8/45/8 9/44/9 6/46/6

f 20/47/20 18/48/18 17/49/17

f 19/50/19 18/51/18 21/52/21
f 21/52/21 18/51/18 20/53/20
f 21/52/21 20/53/20 3/54/3
#EOF